<?xml version="1.0" encoding="utf-8"?>
<svg viewBox="0 0 500 500" xmlns="http://www.w3.org/2000/svg">
  <rect x="-7.914" y="-6.805" width="538.855" height="532.688" style="stroke: rgb(0, 0, 0); fill: rgb(198, 198, 198);"/>
  <path stroke="rgb(255,0,0)" stroke-width="0" d="M 122.571 253.351 C 193.567 251.102 164.054 317.139 165.177 320.423 C 166.25 323.56 193.482 323.894 193.545 356.772 C 193.574 371.826 191.266 511.612 191.883 515.922 C 192.676 521.464 189.967 530.363 160.974 530.775 C 145.664 530.993 91.296 532.141 83.509 531.948 C 54.571 531.23 55.029 529.717 54.338 514.762 C 53.35 493.377 55.852 369.456 55.644 351.828 C 55.291 321.957 84.219 323.407 84.927 321.476 C 85.891 318.844 68.402 255.067 122.571 253.351 Z M 266.608 350.023 C 296.463 333.381 333.199 355.386 334.096 355.305 C 336.248 355.111 344.05 336.352 376.937 346.502 C 398.543 353.17 399.539 369.871 401.291 370.563 C 403.028 371.249 434.59 341.413 465.059 377.311 C 485.356 401.225 467.668 425.287 467.019 427.195 C 466.14 429.778 477.358 433.752 476.097 443.19 C 474.476 455.323 465.298 455.629 465.454 458.693 C 465.64 462.34 476.948 463.107 473.474 478.251 C 471.218 488.085 463.403 491.243 463.498 491.749 C 463.68 492.722 473.08 501.592 469.296 511.741 C 464.392 524.893 448.531 526.353 443.838 525.493 C 440.368 524.857 258.949 523.531 254.812 525.387 C 253.388 526.026 234.247 520.372 228.943 507.344 C 222.028 490.359 235.887 483.66 236.151 478.087 C 236.359 473.704 224.373 468.939 225.149 454.808 C 226.449 431.132 241.417 430.604 241.541 429.315 C 241.688 427.792 229.022 423.41 232.454 407.786 C 235.346 394.62 245.268 392.633 246.362 390.81 C 247.529 388.865 242.523 363.449 266.608 350.023 Z M 362.149 101.35 C 331.93 63.198 366.755 17.911 389.644 20.092 C 392.105 20.326 367.254 64.969 391.567 84.123 C 420.071 106.579 448.013 87.745 448.254 90.641 C 449.951 111.019 395.556 143.527 362.149 101.35 Z" style="stroke: rgb(129, 151, 57); stroke-width: 2px; fill: rgb(125, 125, 125);"/>
</svg>